<svg class="ui ui-ubr_eye" viewBox="0 0 80 80" fill="currentColor" xmlns="http://www.w3.org/2000/svg">
  <path d="M75.143 36l-6.8-7.4c-4.4-5.1-9.8-8.7-15.4-10.6-7.9-2.6-16.7-2.6-24.6 0-5.7 1.9-11.1 5.6-15.6 10.7l-6.6 7.3c-2 2.2-2 5.6 0 7.9 0 0 5.5 6.2 7.3 8.3 3.4 3.9 7.2 6.8 11.4 8.6 5 2.2 10.3 3.3 15.7 3.3 4.2 0 8.3-.7 12.4-2 5.7-1.9 11-5.5 15.4-10.6l6.8-7.5c2-2.3 2-5.7 0-8zm-3 5.3l-6.8 7.5c-4 4.5-8.7 7.8-13.7 9.4-8.3 2.7-17.2 2.3-25.2-1.2-3.6-1.6-7-4.1-10-7.6-1.8-2.1-7.3-8.3-7.3-8.3-.7-.8-.7-1.9 0-2.6l6.6-7.4c4-4.6 8.8-7.9 13.8-9.6 7.1-2.3 15-2.3 22.1 0 5 1.6 9.7 4.9 13.7 9.4l6.8 7.5c.7 1 .7 2.1 0 2.9z"/>
  <path d="M40.643 23.2c-9.3 0-16.9 7.5-16.9 16.7s7.6 16.8 16.9 16.8c9.3 0 16.9-7.5 16.9-16.7s-7.6-16.8-16.9-16.8zm0 29.6c-7.1 0-12.9-5.7-12.9-12.8 0-7.1 5.8-12.8 12.9-12.8 7.1 0 12.9 5.7 12.9 12.8 0 7.1-5.8 12.8-12.9 12.8z"/>
</svg>